<?xml version="1.0" encoding="UTF-8" standalone="no"?>
<svg
   width="367.67"
   height="120"
   viewBox="0 0 367.67 120"
   version="1.1"
   id="svg16"
   sodipodi:docname="karakal_logo_grey.svg"
   inkscape:label="pozadí"
   inkscape:version="1.1.2 (0a00cf5339, 2022-02-04)"
   xmlns:inkscape="http://www.inkscape.org/namespaces/inkscape"
   xmlns:sodipodi="http://sodipodi.sourceforge.net/DTD/sodipodi-0.dtd"
   xmlns="http://www.w3.org/2000/svg"
   xmlns:svg="http://www.w3.org/2000/svg"
   xmlns:rdf="http://www.w3.org/1999/02/22-rdf-syntax-ns#"
   xmlns:cc="http://creativecommons.org/ns#"
   xmlns:dc="http://purl.org/dc/elements/1.1/">
  <defs
     id="defs20" />
  <sodipodi:namedview
     id="namedview18"
     pagecolor="#ffffff"
     bordercolor="#666666"
     borderopacity="1.0"
     inkscape:pageshadow="2"
     inkscape:pageopacity="0.0"
     inkscape:pagecheckerboard="0"
     showgrid="false"
     inkscape:zoom="1.6233993"
     inkscape:cx="243.3166"
     inkscape:cy="64.679097"
     inkscape:window-width="1920"
     inkscape:window-height="1048"
     inkscape:window-x="0"
     inkscape:window-y="484"
     inkscape:window-maximized="1"
     inkscape:current-layer="svg16" />
  <title
     id="title2">logo_karakal_grey</title>
  <rect
     style="display:inline;opacity:1;fill:none;fill-opacity:1;fill-rule:evenodd;stroke-width:3.80653;stroke-linecap:square;paint-order:fill markers stroke"
     id="rect861"
     width="367.67859"
     height="120.00962"
     x="0.0075501655"
     y="-0.0045194807" />
  <g
     id="g14"
     style="display:inline"
     inkscape:export-filename="/home/honza/PycharmProjects/vetkarakal_rezervacni_system/pictures/karakal_logo_grey.png"
     inkscape:export-xdpi="111.99102"
     inkscape:export-ydpi="111.99102">
    <g
       id="g10"
       style="display:inline">
      <path
         d="m 291.38,21 c -0.8,-0.47 -9.12,-6.38 -11.58,-8.33 -2.46,-1.95 -6.8,-5.75 -6.9,-5.67 -0.46,0.16 -5.68,3.44 -6.33,3.79 -0.08,-0.71 0.09,-3.13 1.17,-4 a 10,10 0 0 1 4.46,-1.57 c -0.08,-0.29 -2.24,-4.5 -2.59,-5.21 2.93,0.82 8.37,5.49 12.62,10.14 4.25,4.65 7.67,8.52 9.15,10.85 z m -9.94,-4.22 a 56.54,56.54 0 0 0 2.73,8.69 c 0.25,0.54 -0.1,2.19 0.53,3.11 a 4.32,4.32 0 0 0 2.5,1.83 c -0.41,-1.66 -1.63,-7.5 -2.31,-9.25 a 10.5,10.5 0 0 0 -3.45,-4.37 z m 10.62,3.62 v 7.35 a 9.19,9.19 0 0 0 2.23,0.14 55.07,55.07 0 0 0 5.31,-2.18 z m 10.36,3.22 -0.37,-0.34 -1.23,1.06 0.51,0.51 z m 0.42,0.24 6.16,-9.56 c 0,0 3,6.81 3.63,9 0.65,2.36 1.15,5.62 1.71,7.13 0.56,1.51 2.17,4.93 2.35,6.2 a 32.89,32.89 0 0 1 0.21,6.12 c 0.83,-0.81 3.2,-3.65 3.2,-3.65 a 7,7 0 0 1 -1.35,-1.73 38.43,38.43 0 0 1 -0.15,-5.45 c 0,-2.58 0,-5.11 0,-5.11 0,0 -3.48,-6.46 -4.92,-8.43 a 30.82,30.82 0 0 1 -1.94,-2.63 5,5 0 0 1 -0.7,-3.56 c 0.78,-2 3.27,-7.07 3.27,-7.07 l -2.52,2.33 1.34,-5.82 -2.57,4.74 L 309.1,2 c 0,0 0,7.91 0,8.25 a 2,2 0 0 1 -0.42,1.4 c -0.25,0.35 -4.62,3.19 -5.84,12.22 z m 3.91,3.69 v 1.63 a 5.33,5.33 0 0 1 1.26,-0.46 c 1.45,-0.31 2.58,-0.75 3.28,-3.29 a 5.24,5.24 0 0 1 -1.34,0.7 c -0.88,0.33 -2.27,-0.21 -3.2,1.43 z m 0.13,5.2 v 3.6 l 1.54,1 c 1.44,1 3.24,2.23 4.78,1.62 z m -4.34,10.37 -3.92,4 c -0.83,0.29 -4.16,-0.05 -5.61,0.09 -0.72,0.07 -1.74,1.23 -1.74,1.23 l -4.9,-1.92 5.44,-4.52 -1.34,-1.33 3.34,-5.56 1,0.39 -0.81,5.23 z m -9.65,1 h -0.59 v 1.56 h 0.59 z m -12.29,1.7 2.6,-2.69 -1.3,-4.13 4.47,-7 a 6.86,6.86 0 0 0 -4.6,2.87 c -1.28,2.12 -1.74,4.5 -2.81,5.44 z m -6.87,-0.82 -0.36,2.17 5.7,5.59 v -0.23 z m 0,4.58 v 1.37 l 4.9,2.37 v -0.14 z m 10.14,-1.45 -1.42,-0.71 -3,2.16 c 0,0 0.28,1.93 0.44,3 a 15.5,15.5 0 0 0 1.22,3.42 l 5,-3.55 1.73,-3 -0.76,-1.6 -2.05,3 c 0,0 -3.18,0.34 -3.68,-0.15 -0.35,-0.32 2.5,-2.58 2.5,-2.58 z m 1.07,14.87 -2.2,-6.69 h -0.36 L 282.6,61 Z m -0.6,-2.43 1,1.8 5.81,-3.34 h -0.56 z m 10.33,2.78 -8.5,0.41 6.73,3.24 z m -5.23,-6.87 12.24,-1.45 2.16,-3.48 -14.4,4.77 z M 303.5,56.31 289.62,57 v 0.16 l 12.51,0.62 0.55,2 h 0.2 z m -3.42,4.57 1.92,-2.32 -10.52,-0.68 z m 17.1,-0.49 2.9,-8.27 a 23.58,23.58 0 0 0 -4.06,2.8 13,13 0 0 0 -1.94,3.25 9.21,9.21 0 0 1 -1.59,1.73 22.78,22.78 0 0 0 -1.86,1.94 c -0.89,0.91 -1.57,1.09 -1.89,1.91 a 2.9,2.9 0 0 0 0,1.78 16.75,16.75 0 0 1 6.79,-3.49 l -1.48,4.08 a 47.06,47.06 0 0 0 9,-7.87 l -1,-1 z m 5.29,-15 a 19.64,19.64 0 0 1 3.33,3.68 c 0.53,0.92 4.53,3.57 6.21,4.91 1.68,1.34 2.78,3.65 4.76,5.78 0.78,0.85 3.71,3.87 4.28,4.43 0.25,0.25 1.68,2 1.68,2 l 1.24,-0.52 a 17.36,17.36 0 0 0 -3.29,-6 40,40 0 0 0 -4.55,-4.51 c -0.65,-0.55 -9.09,-6.77 -9.61,-7.21 -0.52,-0.44 -3.69,-3.72 -4.38,-4.25 a 6.34,6.34 0 0 0 -2.64,-1 c 0,0 2.25,2 2.97,2.75 z m 23.17,28.67 c 0,0 -0.55,4.06 0.13,5.3 a 5.93,5.93 0 0 0 2.28,1.76 4.56,4.56 0 0 0 0.25,-2.81 23.61,23.61 0 0 0 -2.66,-4.19 z m -4.36,12 2.82,-2.61 -3.1,-7.09 a 5.2,5.2 0 0 0 -4.51,-3.22 l 2.41,2.5 z m 4.15,-16.79 -0.22,1.15 9,4.95 c 0,0 5.15,5.31 7.39,10.07 1.58,3.34 3.5,6.47 3,15.62 -3,5.58 -7.49,9.17 -14.67,11.45 a 33.5,33.5 0 0 1 -5.55,1 c -2.66,0.48 -4.67,1 -4.67,1 a 31.55,31.55 0 0 0 6.31,0.83 c 3.54,0 10.85,-1.17 13.17,-2.17 4.6,-2 8.62,-9.48 8.5,-15.85 -0.09,-5.06 -0.55,-6.93 -1.71,-9 -1.16,-2.07 -2,-2.14 -2.42,-3.07 -0.84,-2 0.2,-2.25 -1.74,-5.72 a 15.37,15.37 0 0 0 -6.17,-5.81 c -1.95,-1.08 -8,-4.6 -8,-4.6 z m -7.94,22.31 A 2.57,2.57 0 0 1 335.3,91 c -0.88,-0.71 -1,-2.93 -1.37,-3.52 a 3,3 0 0 0 -0.85,-1.08 c -0.32,-0.28 -0.57,-1.44 -1.67,-1.85 a 2.77,2.77 0 0 0 -2.56,0.24 c 1.34,1.87 3.7,3.68 4.16,5.29 0.46,1.61 0,1.78 0.44,3.14 0.4,1.11 1.07,2.72 1.36,3.91 0.35,1.48 -0.43,3.82 0.51,7.19 0.47,1.69 2.59,6.86 2.59,6.86 l -2.29,4.16 c -2.38,0 -8.4,-0.85 -16.29,-0.93 -6.08,-0.06 -17.77,0.89 -18.93,0.94 -1.16,0.05 -4.84,-0.17 -6.18,-0.16 -2.76,0 -2.86,1.9 -4.6,2 -1.53,0 -2.58,-1.76 -4.2,-1.8 -1.62,-0.04 -2.82,1.24 -4.6,1.38 -1.78,0.14 -7.51,-1.15 -8.94,-1.25 -1.59,-0.11 -2.64,1.09 -3.9,1.24 -2.7,0.32 -5.8,-0.38 -9.22,0.06 -1.8,0.23 -3.19,0.85 -3.19,1.52 1.2,0 2.77,0.17 6.54,-0.06 1.38,-0.09 3.95,0.15 5.38,0.2 1.43,0.05 2.13,-0.3 4.53,-0.18 3.23,0.16 3.68,1.71 6.24,1.71 2.21,0 4.39,-1.58 6.14,-1.58 2.29,0 4.18,1.41 5.59,1.41 1.41,0 0.92,-1.06 3.85,-1.47 1.44,-0.2 4.81,0 9,0 4.67,0 9.77,-0.21 11.42,-0.16 3.14,0.09 16.61,0.48 20.19,-0.32 a 15.22,15.22 0 0 0 5,-2 c 0,0 0.29,-9.41 -0.36,-11.32 -0.71,-2.08 -2.33,-5.46 -2.54,-6.31 a 11.28,11.28 0 0 1 0.13,-4.87 l 2.75,-0.63 -0.3,-7 h -0.92 z m -69.94,20.12 -3.91,3.3 h 4.62 z m -7,1.35 a 6.71,6.71 0 0 0 -1.51,1.57 l 0.89,1 3.82,-2.27 -0.89,-1.18 a 11.25,11.25 0 0 0 -2.3,0.97 z M 306.32,81.97 313,97.74 309.17,102 a 4.86,4.86 0 0 0 3.45,-0.74 24.45,24.45 0 0 0 2.43,-2.62 c 0,0 -2.58,-9.19 -4.2,-11.67 a 15.72,15.72 0 0 0 -4.52,-4.91 z m 0.22,19 a 8.28,8.28 0 0 0 -4.24,-0.57 c -1.27,0.19 -1.9,1.08 -5.82,1.89 -2,0.41 -9,1.51 -10.52,1.63 -1.52,0.12 -6.62,1.51 -11.07,1.93 -2.3,0.21 -15.28,0.88 -15.28,0.88 a 25.74,25.74 0 0 0 -3.66,4.39 c -0.39,0.79 -1.13,3.09 -0.71,7 0,0 2,-4.38 2.74,-6.13 a 5.73,5.73 0 0 1 3.79,-2.66 c 1.86,-0.31 4.29,0.35 6.14,0.3 1.85,-0.05 5.59,-1.55 7,-1.61 a 102.1,102.1 0 0 0 11.67,-1.65 c 1.39,-0.37 2.12,-1.24 2.86,-1.27 a 26.87,26.87 0 0 0 3.65,0.08 c 4.34,-0.25 11.46,-3.51 13.46,-4.18 z m -53.72,9.88 h -7.21 l -1.57,-1.84 V 108 h 0.19 v -0.65 l -1.07,-1.26 -2.46,2.41 c 0,0 -1.6,3.69 -3.39,5.3 l 0.55,0.17 h 11.58 l 2.9,-0.12 0.92,-0.77 z m -2.77,-17.42 c 1.69,-0.06 2.37,-0.85 3.48,-1.25 1.11,-0.4 2.62,-0.24 3.88,-0.79 a 2.94,2.94 0 0 0 1.59,-1.8 v -1.88 a 17.63,17.63 0 0 1 -4.51,1.08 4.58,4.58 0 0 1 -3.65,-1.49 l -5.3,3.42 c 0.91,1.38 2.82,2.82 4.52,2.75 z m 44.83,-23.14 a 38.6,38.6 0 0 0 -3.33,2.43 31.69,31.69 0 0 1 0.33,7.32 22.88,22.88 0 0 1 -5.72,12 60.7,60.7 0 0 1 -7.56,6.62 86.65,86.65 0 0 0 -8.67,1.52 c -3.51,0.72 -15.28,3.22 -19.3,3.36 a 84.62,84.62 0 0 1 -8.65,-0.14 6.8,6.8 0 0 1 -1,2.28 c -0.7,1.11 -2.64,2.8 -3,4.46 a 4.1,4.1 0 0 0 0.26,2.23 h -3.08 l 2.1,-7.13 3.54,-3.1 c 0,0 4.25,-0.08 6.22,-0.18 6.88,-0.36 19,-4.26 23,-5.05 4,-0.79 8.6,-0.37 11.58,-3.13 3.6,-3.34 8.33,-14.71 9.06,-19.84 -2.86,1 -6,2.23 -9.15,3.36 -2.28,0.82 -4.54,1.42 -6.61,2.08 -3.7,1.19 -6.84,2.17 -8.58,2.08 -3.2,-0.17 -3.08,-0.8 -6,-0.22 -2.92,0.58 -5.62,2.4 -7.51,3.19 -1.89,0.79 -7.61,2 -9.27,2.53 -3.1,1.06 -3,1.78 -4.68,2 -1.68,0.22 -3.58,-0.15 -5.06,0.7 l 7.43,2.69 c 0,0 -7.25,0.28 -10.74,0.49 -4.16,0.24 -10.07,-1.69 -15,-1.78 -3.19,-0.06 -6.88,0.29 -10.37,0.52 A 24.81,24.81 0 0 0 201,92 c -1.1,0.31 -4.46,3.21 -4.46,3.21 l 1.59,6.54 c 0,0 7.49,-0.53 9.2,-0.52 3.46,0 9.72,0.75 10.69,0.86 a 16.41,16.41 0 0 1 9.41,-3.27 c 3.52,-0.12 8.94,1.68 10.9,2.41 l -2.17,2.31 c 0,0 -4,0 -5.3,-0.09 -1.88,-0.17 -2,-1.88 -4.56,-1.82 -2.32,0.06 -2.77,1.76 -5.75,1.9 -2.13,0.1 -2.45,-0.34 -5.32,-0.25 -2.87,0.09 -3,1.82 -9.4,1.77 -5.94,-0.06 -5.88,-1.53 -8.27,-2.85 -0.88,-0.49 -1.74,0 -2.78,-1.18 -0.77,-0.91 -1.28,-3.09 -1.45,-4.83 h -6.75 V 89 l 5,-3.32 h 19.92 a 10.33,10.33 0 0 1 3.05,0.11 c 1,0.32 1.64,1 2.49,1 a 2.59,2.59 0 0 0 2,-1.14 8.9,8.9 0 0 0 4,1.57 c 2.31,0.21 3,-0.26 4.43,-0.17 1.43,0.09 2.86,0.19 4.43,0.22 1.57,0.03 4.35,-1.51 6.6,-1.7 2.25,-0.19 3.41,0.3 4,0.11 0,0 6.08,-2.75 10.42,-4.36 a 26,26 0 0 1 8.85,-1.55 c 1.37,-0.13 1.53,-1 2.7,-1 a 1.43,1.43 0 0 1 1.41,0.91 3,3 0 0 1 2,-1.4 c 1.38,-0.08 2.25,0.08 3.46,0 2.05,-0.21 8.29,-3.19 9.7,-3.66 a 48.11,48.11 0 0 0 10.4,-4.22 c 1.49,-0.89 1.85,-2.32 1.9,-3.91 a 1.58,1.58 0 0 1 1.52,1 z m -94.25,18.63 h -9.84 L 189,92.69 a 9,9 0 0 0 5.06,0 42.29,42.29 0 0 0 6.57,-3.77 z m 4.83,-0.64 -1.57,-0.72 -3,1.36 h 3.21 z m 5.78,-0.72 a 22.53,22.53 0 0 0 -3.74,0.14 l -1.69,0.54 a 3.74,3.74 0 0 0 2.12,0.38 5.45,5.45 0 0 0 3.31,-1.06 z"
         style="fill:#454545"
         id="path4" />
      <path
         d="m 6.78,69.78 c 0.32,-1 0.66,-1.93 1,-2.92 L 9.44,62.32 H 10.5 L 7.23,71.16 H 6.31 L 3,62.32 h 1.07 l 1.67,4.54 c 0.36,1 0.7,2 1,2.92 z m 8.72,0.41 H 20 v 1 h -5.56 v -8.87 h 5.27 v 1 H 15.5 v 2.85 h 3.74 v 1 H 15.5 Z m 11.9,1 h -1.06 v -7.9 h -2.9 v -1 h 6.86 v 1 h -2.9 z m 7.84,-1 h 4.45 v 1 h -5.51 v -8.87 h 5.27 v 1 h -4.21 v 2.85 H 39 v 1 h -3.76 z m 9.85,-2.69 v 3.66 H 44 v -8.84 h 2.25 a 9,9 0 0 1 1,0 5,5 0 0 1 0.73,0.14 2.55,2.55 0 0 1 1.38,0.85 2.37,2.37 0 0 1 0.48,1.51 2.42,2.42 0 0 1 -0.17,1 2.13,2.13 0 0 1 -0.47,0.73 2.39,2.39 0 0 1 -0.73,0.51 3.83,3.83 0 0 1 -0.94,0.29 v 0 l 2.57,3.78 H 49 L 46.37,67.5 Z m 0,-4.21 v 3.24 h 1 a 6.57,6.57 0 0 0 0.83,0 3.45,3.45 0 0 0 0.62,-0.11 1.73,1.73 0 0 0 0.85,-0.55 1.54,1.54 0 0 0 0.3,-1 1.44,1.44 0 0 0 -0.29,-0.91 1.51,1.51 0 0 0 -0.77,-0.5 2.64,2.64 0 0 0 -0.56,-0.11 c -0.21,0 -0.49,0 -0.82,0 z m 9.32,7.87 v -8.84 h 1.06 v 8.84 z m 10.24,-3.91 c 0.53,0.78 1.06,1.58 1.58,2.4 v 0 c -0.06,-0.86 -0.09,-1.73 -0.09,-2.63 v -4.7 h 1.07 v 8.84 H 66.19 L 62.78,66.23 C 62.2,65.37 61.67,64.57 61.21,63.82 v 0 c 0.06,0.81 0.08,1.75 0.08,2.83 v 4.51 h -1 v -8.84 h 1 z m 6.45,3.91 3.53,-8.84 h 0.91 l 3.54,8.84 h -1.15 l -1,-2.66 h -3.66 l -1,2.66 z m 4,-7.47 q -0.58,1.65 -1.11,3 l -0.33,0.83 h 2.88 l -0.33,-0.83 c -0.35,-0.91 -0.72,-1.91 -1.09,-3 z m 1.7,-3.47 -1.2,1.63 h -0.9 l 1,-1.63 z M 84,67.5 v 3.66 h -1.07 v -8.84 h 2.25 a 9,9 0 0 1 1,0 4.73,4.73 0 0 1 0.73,0.14 2.58,2.58 0 0 1 1.39,0.85 2.43,2.43 0 0 1 0.47,1.51 2.61,2.61 0 0 1 -0.16,1 2.16,2.16 0 0 1 -0.48,0.73 2.28,2.28 0 0 1 -0.73,0.51 3.7,3.7 0 0 1 -0.94,0.29 v 0 L 89,71.16 H 87.94 L 85.27,67.5 Z m 0,-4.21 v 3.24 h 1 a 6.67,6.67 0 0 0 0.83,0 3.5,3.5 0 0 0 0.61,-0.11 1.73,1.73 0 0 0 0.85,-0.55 1.54,1.54 0 0 0 0.3,-1 1.44,1.44 0 0 0 -0.29,-0.91 1.51,1.51 0 0 0 -0.77,-0.5 2.52,2.52 0 0 0 -0.56,-0.11 c -0.21,0 -0.49,0 -0.82,0 z m 13.78,4 c 0.53,0.78 1.06,1.58 1.58,2.4 v 0 c 0,-0.86 -0.08,-1.73 -0.08,-2.63 v -4.7 h 1.06 v 8.84 h -1 L 95.9,66.23 c -0.59,-0.86 -1.11,-1.66 -1.57,-2.41 v 0 c 0,0.81 0.08,1.75 0.08,2.83 v 4.51 h -1.1 v -8.84 h 1.06 z m 7.31,3.91 v -8.88 h 1.06 v 8.84 z m 2.08,-10.94 -1.17,1.59 h -0.9 l 1,-1.63 z m 8.89,10.94 v -8.88 h 1.06 v 4.37 0 l 4,-4.37 h 1.06 l -4,4.4 4.29,4.44 h -1.06 l -4.23,-4.33 v 0 4.33 z m 11.62,-8.84 v 7.87 h 4.23 v 1 h -5.29 v -8.91 z m 8.38,8.84 v -8.88 h 1.06 v 8.84 z m 10.24,-3.91 c 0.53,0.78 1.06,1.58 1.58,2.4 v 0 c -0.06,-0.86 -0.09,-1.73 -0.09,-2.63 v -4.7 h 1.07 v 8.84 h -1.06 l -3.41,-4.93 c -0.58,-0.86 -1.11,-1.66 -1.57,-2.41 v 0 c 0.06,0.81 0.08,1.75 0.08,2.83 v 4.51 h -1 v -8.88 h 1 z m 7.31,3.91 v -8.88 h 1.06 v 8.84 z m 5.79,0 v -8.88 h 1.06 v 4.37 0 l 4,-4.37 h 1.05 l -4,4.4 4.28,4.44 h -1.05 l -4.23,-4.33 v 0 4.33 z m 9.68,0 3.54,-8.84 h 0.91 l 3.54,8.84 h -1.15 l -1,-2.66 h -3.63 l -1,2.66 z m 4,-7.47 q -0.59,1.65 -1.11,3 l -0.33,0.83 h 2.88 l -0.33,-0.83 c -0.36,-0.91 -0.72,-1.91 -1.09,-3 z m 15.24,7.47 h -1.06 v -7.91 h -2.9 v -1 h 6.86 v 1 h -2.9 z m 5.19,0 3.49,-8.88 h 0.92 l 3.53,8.84 h -1.15 l -1,-2.66 h -3.63 l -1,2.66 z m 4,-7.47 q -0.58,1.65 -1.11,3 l -0.32,0.83 h 2.87 l -0.33,-0.83 q -0.53,-1.36 -1.08,-3 z m 1.7,-3.47 -1.21,1.59 h -0.91 l 0.95,-1.63 z m 10.37,6.37 a 2.7,2.7 0 0 1 0.73,0.21 2.25,2.25 0 0 1 0.55,0.41 1.74,1.74 0 0 1 0.35,0.59 2.32,2.32 0 0 1 0.12,0.78 2.6,2.6 0 0 1 -0.09,0.65 2.71,2.71 0 0 1 -0.29,0.66 2.53,2.53 0 0 1 -0.55,0.59 2.56,2.56 0 0 1 -0.84,0.44 4.09,4.09 0 0 1 -0.85,0.19 c -0.31,0 -0.69,0 -1.12,0 h -2.22 v -8.83 h 2.63 0.45 0.37 l 0.33,0.07 a 2.8,2.8 0 0 1 0.73,0.3 2.15,2.15 0 0 1 0.56,0.47 1.89,1.89 0 0 1 0.36,0.61 2.27,2.27 0 0 1 0.12,0.75 2.51,2.51 0 0 1 -0.07,0.62 1.8,1.8 0 0 1 -0.24,0.55 1.66,1.66 0 0 1 -0.43,0.45 2.4,2.4 0 0 1 -0.64,0.33 z M 208,66.14 a 4.16,4.16 0 0 0 0.54,0 2.26,2.26 0 0 0 0.41,-0.09 1.33,1.33 0 0 0 0.71,-0.51 1.49,1.49 0 0 0 0.22,-0.83 1.29,1.29 0 0 0 -0.23,-0.8 1.44,1.44 0 0 0 -0.73,-0.46 3.06,3.06 0 0 0 -0.57,-0.1 c -0.22,0 -0.47,0 -0.77,0 h -1.19 v 2.85 z m -1.61,1 v 3.07 h 1.28 a 7.48,7.48 0 0 0 0.85,0 2.85,2.85 0 0 0 0.66,-0.13 1.68,1.68 0 0 0 0.5,-0.26 1.37,1.37 0 0 0 0.34,-0.34 1.44,1.44 0 0 0 0.18,-0.4 2,2 0 0 0 0.05,-0.43 1.78,1.78 0 0 0 -0.06,-0.47 1,1 0 0 0 -0.19,-0.4 1.16,1.16 0 0 0 -0.35,-0.3 1.69,1.69 0 0 0 -0.54,-0.21 l -0.44,-0.07 h -2.28 z m 17.11,-0.37 a 6,6 0 0 1 -0.28,1.84 4.36,4.36 0 0 1 -0.82,1.39 3.73,3.73 0 0 1 -1.28,0.94 3.85,3.85 0 0 1 -1.66,0.34 4,4 0 0 1 -1.7,-0.34 3.64,3.64 0 0 1 -1.28,-0.94 4.32,4.32 0 0 1 -0.79,-1.45 5.72,5.72 0 0 1 -0.28,-1.84 5.5,5.5 0 0 1 0.29,-1.86 4.36,4.36 0 0 1 0.81,-1.45 3.75,3.75 0 0 1 1.27,-0.95 4,4 0 0 1 1.67,-0.34 4.14,4.14 0 0 1 1.69,0.34 3.66,3.66 0 0 1 1.27,0.95 4.17,4.17 0 0 1 0.8,1.45 5.76,5.76 0 0 1 0.28,1.9 z m -1.05,0 a 5.06,5.06 0 0 0 -0.23,-1.58 3.16,3.16 0 0 0 -0.63,-1.13 2.55,2.55 0 0 0 -1,-0.69 3,3 0 0 0 -2.36,0 2.55,2.55 0 0 0 -1,0.69 3.16,3.16 0 0 0 -0.63,1.13 5.06,5.06 0 0 0 -0.23,1.58 4.93,4.93 0 0 0 0.23,1.56 3.39,3.39 0 0 0 0.64,1.14 2.56,2.56 0 0 0 0.95,0.68 2.9,2.9 0 0 0 1.18,0.24 2.85,2.85 0 0 0 1.17,-0.24 2.64,2.64 0 0 0 1,-0.68 3.21,3.21 0 0 0 0.63,-1.14 4.93,4.93 0 0 0 0.27,-1.58 z m 6.57,0.75 v 3.66 H 228 v -8.86 h 2.25 a 9,9 0 0 1 1,0 5,5 0 0 1 0.73,0.14 2.55,2.55 0 0 1 1.38,0.85 2.37,2.37 0 0 1 0.48,1.51 2.61,2.61 0 0 1 -0.16,1 2.32,2.32 0 0 1 -0.48,0.73 2.28,2.28 0 0 1 -0.73,0.51 3.83,3.83 0 0 1 -0.94,0.29 v 0 l 2.47,3.81 h -1 l -2.67,-3.66 z m 0,-4.21 v 3.24 h 1 a 6.47,6.47 0 0 0 0.83,0 3.45,3.45 0 0 0 0.62,-0.11 1.73,1.73 0 0 0 0.85,-0.55 1.54,1.54 0 0 0 0.3,-1 1.44,1.44 0 0 0 -0.29,-0.91 1.51,1.51 0 0 0 -0.77,-0.5 2.52,2.52 0 0 0 -0.56,-0.11 c -0.21,0 -0.49,0 -0.82,0 z"
         style="fill:#454545"
         id="path6" />
      <path
         d="M 11.52,9.87 V 23.71 L 25.37,9.87 H 37.71 L 15.92,31.65 37.71,53.44 H 25.37 L 11.52,39.59 H 2.78 v -26.8 a 3.08,3.08 0 0 1 1.57,-2 6.62,6.62 0 0 1 2.87,-0.9 h 4.3 z m 51.22,0 H 57 a 5.45,5.45 0 0 0 -2.66,0.9 3,3 0 0 0 -1.37,2 L 42,53.44 h 9 L 53.6,44 h 11.78 l 2.53,9.45 h 9 L 65.26,9.87 Z M 59.5,22 63,35.25 h -3.74 a 5.46,5.46 0 0 0 -2.69,0.91 3,3 0 0 0 -1.37,2 l 0.74,-2.93 z M 90,9.87 h 13.32 a 12.39,12.39 0 0 1 6.46,1.74 13.09,13.09 0 0 1 4.66,4.66 12.39,12.39 0 0 1 1.74,6.46 12.48,12.48 0 0 1 -1.38,5.81 13,13 0 0 1 -9.11,6.87 l 10.49,18 H 106.11 L 95.77,35.62 H 90 V 53.44 H 81.28 V 12.79 a 3,3 0 0 1 1.57,-2 6.53,6.53 0 0 1 2.86,-0.9 H 90 Z m 0,17 v 2.93 a 3,3 0 0 1 1.56,-2 6.77,6.77 0 0 1 2.87,-0.91 h 8.89 a 4.13,4.13 0 0 0 4.12,-4.15 4.13,4.13 0 0 0 -4.12,-4.12 H 90 Z m 51.21,-17 h -5.75 a 5.45,5.45 0 0 0 -2.66,0.9 3,3 0 0 0 -1.37,2 l -10.9,40.67 h 9 L 132.1,44 h 11.78 l 2.52,9.45 h 9 L 143.76,9.87 Z M 138,22 l 3.54,13.29 h -3.78 a 5.43,5.43 0 0 0 -2.69,0.91 3,3 0 0 0 -1.37,2 l 0.73,-2.93 z M 168.51,9.87 V 23.71 L 182.35,9.87 h 12.34 l -21.78,21.78 21.78,21.79 H 182.35 L 168.51,39.59 v 13.85 h -8.74 V 12.79 a 3.05,3.05 0 0 1 1.57,-2 6.53,6.53 0 0 1 2.86,-0.9 h 4.31 z m 51.22,0 H 214 a 5.45,5.45 0 0 0 -2.66,0.9 3.06,3.06 0 0 0 -1.37,2 L 199,53.44 h 9 L 210.59,44 h 11.78 l 2.53,9.45 h 9 L 222.25,9.87 Z M 216.5,22 220,35.25 h -3.78 a 5.46,5.46 0 0 0 -2.69,0.91 3,3 0 0 0 -1.37,2 l 0.74,-2.93 z M 247,9.87 v 37.78 a 3,3 0 0 1 1.57,-2 6.7,6.7 0 0 1 2.86,-0.89 h 14.31 v 8.71 H 238.26 V 12.79 a 3.08,3.08 0 0 1 1.57,-2 6.58,6.58 0 0 1 2.86,-0.9 H 247 Z"
         style="fill:#454545"
         id="path8" />
    </g>
    <polygon
       points="0,44.41 0,49.47 4.54,49.47 4.54,53.38 9.82,53.38 9.82,49.47 14.27,49.47 14.27,44.41 9.82,44.41 9.82,40.56 4.54,40.56 4.54,44.41 "
       style="display:inline;fill:#17baff;fill-rule:evenodd"
       id="polygon12" />
  </g>
  <metadata
     id="metadata837">
    <rdf:RDF>
      <cc:Work
         rdf:about="">
        <dc:title>logo_karakal_grey</dc:title>
      </cc:Work>
    </rdf:RDF>
  </metadata>
</svg>
